#!OML:ASF I:\golf\golf\golf 2\Subject 1\2002-09-07\Subject1.ASF
:FULLY-SPECIFIED
:DEGREES
345
root -5.84113 17.9459 -4.11676 -164.101 -9.13805 -175.598
lowerback -10.4522 16.1586 15.6463
upperback -16.1592 17.7758 0.385961
thorax -7.73109 6.00158 -6.03943
lowerneck -11.3437 -19.2067 -5.06084
upperneck 11.6431 -25.1477 -0.740014
head 5.82267 -12.5505 -1.66645
rclavicle -4.37326e-014 1.66979e-014
rhumerus 108.489 21.0887 -53.9166
rradius 68.7112
rwrist 3.81356
rhand -41.6419 23.2945
rfingers 7.12502
rthumb -14.5502 -6.17523
lclavicle -4.37326e-014 1.66979e-014
lhumerus 69.7799 25.1488 51.2777
lradius 75.0604
lwrist 28.8417
lhand -29.055 17.0002
lfingers 7.12502
lthumb -182.405 -133.034
rfemur 22.0326 -9.27889 22.2212
rtibia -5.08889e-014
rfoot 41.7623 -26.0953
rtoes 24.0678
lfemur -30.6795 -17.5979 -14.043
ltibia 29.7205
lfoot 41.6491 -45.6437
ltoes 54.164
346
root -5.83743 17.9492 -4.10015 -163.9 -9.01601 -175.773
lowerback -10.4097 16.0549 15.482
upperback -16.049 17.6769 0.438452
thorax -7.69794 5.98881 -5.93356
lowerneck -11.3434 -19.0894 -5.00526
upperneck 11.4438 -24.9881 -0.693605
head 5.75602 -12.4672 -1.62977
rclavicle 8.50798e-014 6.75868e-014
rhumerus 108.5 20.9106 -53.9149
rradius 68.2181
rwrist 3.2578
rhand -41.2722 22.5839
rfingers 7.12502
rthumb -14.1939 -6.91112
lclavicle 8.50798e-014 6.75868e-014
lhumerus 69.4887 24.947 50.7416
lradius 74.6794
lwrist 29.5413
lhand -28.5004 17.2385
lfingers 7.12502
lthumb -181.869 -132.79
rfemur 21.8275 -9.06054 22.1221
rtibia -6.36111e-014
rfoot 41.6166 -25.8844
rtoes 23.7555
lfemur -30.8874 -17.4564 -14.2069
ltibia 29.6757
lfoot 41.8868 -45.296
ltoes 54.3349
347
root -5.8332 17.9532 -4.08383 -163.774 -8.91883 -175.87
lowerback -10.3173 15.9764 15.4212
upperback -15.9327 17.6169 0.508818
thorax -7.65836 5.98731 -5.85754
lowerneck -11.5643 -18.9765 -4.79177
upperneck 11.4287 -24.7997 -0.975409
head 5.72047 -12.3839 -1.72511
rclavicle 1.41932e-013 9.85972e-014
rhumerus 108.419 20.6865 -53.9082
rradius 67.6636
rwrist 2.82229
rhand -40.8202 21.9111
rfingers 7.12502
rthumb -13.7583 -7.61402
lclavicle 1.41932e-013 9.85972e-014
lhumerus 69.2958 24.6422 50.3574
lradius 74.2627
lwrist 30.32
lhand -27.8774 17.0198
lfingers 7.12502
lthumb -181.268 -133.004
rfemur 21.6972 -8.84552 22.0881
rtibia -3.18055e-014
rfoot 41.1513 -26.2548
rtoes 24.055
lfemur -31.0097 -17.2296 -14.3359
ltibia 29.6458
lfoot 41.87 -45.3361
ltoes 54.2205
348
root -5.82858 17.9582 -4.06694 -163.783 -8.99638 -175.786
lowerback -10.1238 15.8391 15.6372
upperback -15.8025 17.4906 0.610349
thorax -7.61418 5.92973 -5.90512
lowerneck -11.7364 -18.9336 -4.87176
upperneck 11.4582 -24.7107 -0.984845
head 5.76406 -12.3383 -1.73107
rclavicle 5.48646e-014 3.65764e-014
rhumerus 108.212 20.66 -54.1373
rradius 67.1607
rwrist 2.59745
rhand -40.055 21.5954
rfingers 7.12502
rthumb -13.0208 -7.97826
lclavicle 5.48646e-014 3.65764e-014
lhumerus 69.1588 24.3027 49.907
lradius 73.7971
lwrist 31.0011
lhand -27.2382 16.8873
lfingers 7.12502
lthumb -180.65 -133.134
rfemur 21.6892 -8.7569 22.2737
rtibia -3.18055e-015
rfoot 40.7973 -26.4485
rtoes 23.8272
lfemur -31.0327 -16.9873 -14.3067
ltibia 29.6176
lfoot 41.8752 -45.551
ltoes 53.9962
349
root -5.82306 17.9596 -4.04633 -163.824 -9.05423 -175.741
lowerback -9.89562 15.6725 15.8168
upperback -15.6575 17.3421 0.711228
thorax -7.58485 5.86744 -5.9488
lowerneck -11.8981 -18.8258 -4.75485
upperneck 11.4377 -24.5383 -1.1555
head 5.74476 -12.2592 -1.7844
rclavicle 9.22361e-014 6.20208e-014
rhumerus 108.011 20.6705 -54.3697
rradius 66.6535
rwrist 2.33762
rhand -39.3688 20.9435
rfingers 7.12502
rthumb -12.3592 -8.67118
lclavicle 9.22361e-014 6.20208e-014
lhumerus 68.9866 23.9637 49.4359
lradius 73.3573
lwrist 31.7523
lhand -26.5606 17.0622
lfingers 7.12502
lthumb -179.996 -132.958
rfemur 21.7145 -8.66139 22.4102
rtibia -3.49861e-014
rfoot 40.8689 -25.9987
rtoes 22.8438
lfemur -31.0286 -16.7045 -14.3454
ltibia 29.6194
lfoot 42.3988 -45.2103
ltoes 54.2293
350
root -5.81805 17.9602 -4.02837 -163.843 -8.97786 -175.824
lowerback -9.73046 15.5182 15.8178
upperback -15.4781 17.2081 0.810501
thorax -7.51943 5.83787 -5.89494
lowerneck -11.9255 -18.7271 -4.83346
upperneck 11.3615 -24.3987 -1.05416
head 5.74577 -12.1848 -1.73479
rclavicle 1.29608e-013 6.52014e-014
rhumerus 107.797 20.471 -54.2462
rradius 66.2238
rwrist 1.6119
rhand -39.1547 20.0047
rfingers 7.12502
rthumb -12.1529 -9.62232
lclavicle 1.29608e-013 6.52014e-014
lhumerus 68.6569 23.6832 48.8609
lradius 73.0602
lwrist 32.6466
lhand -26.1683 17.3822
lfingers 7.12502
lthumb -179.617 -132.638
rfemur 21.7393 -8.4693 22.3773
rtibia -7.63333e-014
rfoot 41.1213 -25.4336
rtoes 21.5888
lfemur -30.9774 -16.3675 -14.5628
ltibia 29.6146
lfoot 42.7346 -44.9372
ltoes 54.4348
351
root -5.81356 17.9621 -4.01351 -163.886 -8.87927 -175.875
lowerback -9.57497 15.3428 15.8575
upperback -15.2887 17.0395 0.921005
thorax -7.43866 5.78894 -5.84906
lowerneck -11.9705 -18.5834 -4.76186
upperneck 11.2442 -24.204 -1.05033
head 5.70544 -12.0864 -1.71824
rclavicle -9.22361e-014 -4.92986e-014
rhumerus 107.468 20.3325 -54.1593
rradius 66.011
rwrist 0.81033
rhand -38.8807 19.4494
rfingers 7.12502
rthumb -11.8886 -10.1931
lclavicle -9.22361e-014 -4.92986e-014
lhumerus 68.2614 23.423 48.1141
lradius 72.7666
lwrist 33.559
lhand -26.0248 17.7492
lfingers 7.12502
lthumb -179.478 -132.272
rfemur 21.7846 -8.25002 22.3722
rtibia -4.77083e-014
rfoot 40.9578 -25.5381
rtoes 20.9759
lfemur -30.8739 -16.0197 -14.753
ltibia 29.5516
lfoot 42.6211 -45.1271
ltoes 54.2301
352
root -5.8065 17.9667 -3.99732 -163.929 -8.77389 -175.926
lowerback -9.36619 15.1833 15.9113
upperback -15.143 16.9059 0.966863
thorax -7.40773 5.74673 -5.88557
lowerneck -12.0934 -18.4574 -4.56979
upperneck 11.2383 -24.0396 -1.15322
head 5.68573 -12.0059 -1.75948
rclavicle -5.32743e-014 -2.38542e-014
rhumerus 106.928 20.1835 -54.3056
rradius 65.9555
rwrist 0.17102
rhand -38.1956 18.998
rfingers 7.12502
rthumb -11.2279 -10.6816
lclavicle -5.32743e-014 -2.38542e-014
lhumerus 68.0142 23.0115 47.4425
lradius 72.3109
lwrist 34.3248
lhand -25.4986 18.0921
lfingers 7.12502
lthumb -178.97 -131.931
rfemur 21.8164 -8.02766 22.377
rtibia 4.77083e-014
rfoot 40.4291 -26.2233
rtoes 21.7149
lfemur -30.783 -15.6613 -14.9143
ltibia 29.4427
lfoot 42.7415 -45.1133
ltoes 54.2409
353
root -5.79543 17.9753 -3.98 -163.876 -8.73796 -176.01
lowerback -9.2082 15.0335 15.8505
upperback -15.0641 16.7739 0.972003
thorax -7.44129 5.70108 -5.90733
lowerneck -12.2434 -18.34 -4.29316
upperneck 11.2814 -23.8818 -1.39052
head 5.65957 -11.9358 -1.85106
rclavicle -6.36111e-015 -3.33958e-014
rhumerus 106.346 20.0177 -54.5081
rradius 65.6453
rwrist -0.468375
rhand -37.6671 18.6905
rfingers 7.12502
rthumb -10.7182 -11.0161
lclavicle -6.36111e-015 -3.33958e-014
lhumerus 67.849 22.4422 46.9706
lradius 71.7346
lwrist 34.8057
lhand -24.7581 18.2847
lfingers 7.12502
lthumb -178.255 -131.743
rfemur 21.7306 -7.88122 22.3931
rtibia 0
rfoot 39.9552 -26.909
rtoes 22.7782
lfemur -30.8216 -15.3316 -15.0363
ltibia 29.319
lfoot 43.0988 -44.9569
ltoes 54.3907
